<?xml version="1.0" encoding="utf-8"?>
<svg viewBox="113.393 -1.5 149.498 84.54" fill="none" xmlns="http://www.w3.org/2000/svg">
  <path d="M 196.794 42.31 C 203.69 21.847 209.479 4.431 209.66 3.607 C 209.912 2.455 205.804 2.04 201.874 1.811 L 196.759 1.515 L 184.214 38.766 C 177.314 59.255 171.359 76.805 170.983 77.767 C 170.38 79.302 170.963 79.515 175.777 79.515 L 184.256 79.515 L 196.794 42.31 Z" fill="#3D72D7"/>
  <path d="M 165.514 33.406 L 165.514 26.496 C 165.514 21.586 165.152 19.615 164.265 19.68 C 163.578 19.73 154.021 23.683 143.028 28.464 L 123.04 37.155 L 122.749 43.129 L 122.457 49.103 L 143.236 57.831 C 154.665 62.631 164.353 66.552 164.764 66.544 C 165.176 66.536 165.514 63.435 165.514 59.652 L 165.514 52.772 L 151.931 48.003 L 138.349 43.233 L 147.684 39.921 C 152.818 38.099 158.93 35.888 161.267 35.007 L 165.514 33.406 Z" fill="#F5F5F5"/>
  <path d="M 257.443 37.066 L 237.712 28.861 C 226.86 24.349 217.195 20.369 216.232 20.015 C 214.672 19.443 214.483 20.129 214.483 26.377 L 214.483 33.382 L 222.729 36.336 C 227.263 37.961 233.335 40.062 236.22 41.006 C 239.106 41.948 241.467 42.85 241.467 43.008 C 241.467 43.167 235.396 45.429 227.975 48.035 L 214.483 52.772 L 214.483 59.652 C 214.483 63.435 214.821 66.536 215.233 66.544 C 215.645 66.552 225.315 62.66 236.72 57.896 L 257.457 49.233 L 257.45 43.149 L 257.443 37.066 Z" fill="#F5F5F5"/>
</svg>
