<svg version="1.0" xmlns="http://www.w3.org/2000/svg" width="250.000000pt" height="315.000000pt"
    viewBox="0 0 250.000000 315.000000" preserveAspectRatio="xMidYMid meet">

    <g transform="translate(0.000000,315.000000) scale(0.100000,-0.100000)" stroke="none">
        <path d="M181.334 93.333v-40L226.667 80v40l-45.333-26.667Z" fill="#B04304"/>
        <path d="M136.001 53.333 90.667 26.667v426.666L136.001 480V53.333Z" fill="#FF5D01"/>
        <path d="m136.001 119.944 45.333-26.667 45.333 26.667-45.333 26.667-45.333-26.667ZM90.667 26.667 136.001 0l45.333 26.667-45.333 26.666-45.334-26.666ZM181.334 53.277l45.333-26.666L272 53.277l-45.333 26.667-45.333-26.667ZM0 213.277l45.333-26.667 45.334 26.667-45.334 26.667L0 213.277ZM136 239.944l-45.333-26.667v53.333L136 239.944Z" fill="#53C68C"/>
        <path d="m136 53.333 45.333-26.666v120L226.667 120V80L272 53.333V160l-90.667 53.333v240L136 480V306.667L45.334 360V240l45.333-26.667v53.334L136 240V53.333Z" fill="#B04304"/>
        <path d="M45.334 240 0 213.334v120L45.334 360V240Z" fill="#B04304"/>
        <!-- original paths below -->
        <path d="M1031 3063 l3 -87 -52 -33 c-56 -36 -73 -69 -53 -107 9 -16 9 -29 2
        -50 -6 -15 -11 -39 -11 -52 0 -21 -10 -30 -64 -54 -69 -32 -84 -50 -58 -73 20
        -16 111 -47 141 -47 19 0 21 -6 21 -55 0 -45 -4 -56 -21 -65 -11 -7 -27 -27
        -35 -46 -9 -22 -21 -34 -34 -34 -40 0 -60 -35 -60 -102 0 -95 14 -133 71 -186
        l50 -47 -3 -154 -3 -153 43 -38 43 -38 -7 -66 c-5 -45 -3 -70 5 -80 9 -11 7
        -27 -9 -75 -11 -33 -20 -77 -20 -97 0 -28 -9 -46 -40 -81 -22 -25 -40 -50 -40
        -56 0 -6 -10 -24 -23 -41 -33 -45 -87 -168 -87 -200 l0 -28 -90 8 c-100 7
        -114 2 -125 -46 -7 -31 -20 -36 -166 -60 -35 -6 -82 -15 -104 -20 -22 -6 -92
        -19 -155 -30 -63 -12 -123 -23 -132 -26 -17 -5 -18 -32 -18 -375 l0 -369 1250
        0 1250 0 0 365 c0 201 -2 365 -4 365 -2 0 -55 -20 -118 -44 -183 -71 -179 -70
        -548 -52 -179 9 -379 18 -445 21 -155 7 -668 32 -900 45 -99 5 -223 10 -275
        11 -52 1 -99 4 -104 7 -7 4 251 59 406 86 l37 7 -2 -38 -2 -37 48 -7 c27 -4
        117 -10 200 -14 84 -3 248 -10 364 -15 117 -5 219 -7 227 -4 8 3 16 14 19 25
        6 24 49 25 100 4 26 -11 77 -15 184 -16 203 -1 372 33 435 88 14 13 50 15 198
        14 150 -2 180 0 180 12 0 11 -24 17 -97 23 l-98 9 -2 185 c-3 352 -11 400 -79
        459 -30 27 -31 31 -15 36 11 3 21 11 24 18 6 17 -10 278 -22 362 -6 39 -15
        108 -22 155 -16 123 -64 285 -125 417 -13 30 -24 57 -24 62 0 8 67 13 333 27
        117 6 127 8 127 26 0 18 -5 19 -52 14 -29 -3 -137 -8 -239 -12 l-186 -6 -21
        34 c-21 33 -21 37 -6 68 16 30 15 33 -5 60 -18 26 -19 31 -6 44 11 11 13 21 5
        38 -24 58 -62 79 -240 136 -118 38 -502 59 -590 32 -72 -21 -75 -19 -73 65 l2
        75 -30 0 -31 0 3 -87z m559 -88 c143 -23 219 -44 283 -78 67 -35 87 -61 64
        -85 -14 -14 -21 -13 -70 2 -131 41 -562 68 -742 46 -147 -18 -159 -18 -163 2
        -8 41 102 100 218 117 94 14 309 12 410 -4z m90 -235 c118 -14 216 -45 253
        -79 28 -26 122 -208 147 -286 7 -22 19 -52 26 -67 36 -70 89 -430 96 -643 l3
        -100 -75 -7 c-41 -3 -113 -16 -160 -27 -83 -20 -192 -27 -224 -15 -9 3 -16 18
        -16 32 0 23 -1 24 -18 9 -27 -24 -97 -36 -212 -37 -124 0 -177 12 -189 43 -5
        12 -23 32 -40 45 -48 35 -31 45 63 37 67 -5 79 -4 68 7 -9 9 -63 14 -196 18
        -243 7 -241 5 -230 207 l7 123 58 0 c33 0 59 4 59 10 0 6 -15 10 -32 10 -52 0
        -107 19 -119 41 -13 26 -3 75 19 84 9 4 56 9 105 12 83 6 105 14 72 27 -19 7
        -19 40 -1 56 8 6 25 10 37 8 19 -2 24 -13 34 -61 15 -75 39 -106 105 -139 44
        -22 69 -27 124 -28 99 0 147 25 175 90 12 27 21 54 21 61 0 14 65 6 86 -12 8
        -6 15 -32 15 -58 1 -40 3 -37 10 24 5 39 7 95 4 125 -8 94 -8 217 -1 229 4 6
        18 11 31 11 13 0 27 5 30 11 5 7 -4 8 -28 4 -32 -6 -37 -4 -51 22 -15 26 -15
        23 -8 -67 4 -52 7 -124 7 -160 0 -64 -1 -65 -25 -61 -36 5 -80 29 -80 45 0 41
        -92 72 -250 82 -93 7 -96 6 -127 -20 -23 -20 -42 -26 -77 -26 -33 0 -46 4 -46
        14 0 20 -23 26 -101 26 -66 0 -69 1 -69 24 0 13 10 30 23 38 19 13 23 27 27
        94 l5 78 60 2 c33 1 77 9 97 18 50 22 133 20 210 -4 63 -19 219 -39 207 -26
        -4 4 -38 11 -75 17 -38 5 -99 18 -136 30 -74 23 -116 22 -217 -5 -53 -15 -73
        -16 -125 -7 -78 14 -133 14 -141 1 -4 -6 12 -10 39 -10 25 0 46 -4 46 -10 0
        -5 -12 -10 -26 -10 -32 0 -124 30 -124 40 0 5 21 15 46 24 25 8 67 31 93 50
        27 20 59 40 72 46 31 13 509 6 639 -10z m-470 -1100 c0 -6 11 -22 24 -35 14
        -14 20 -27 15 -30 -5 -4 -9 -16 -9 -29 0 -12 -5 -27 -12 -34 -15 -15 -184 -16
        -193 -2 -6 9 6 82 20 128 5 15 155 17 155 2z m503 -145 c-3 -10 0 -13 8 -10
        16 6 46 -11 37 -20 -3 -4 -21 -7 -40 -8 -20 -2 -32 -7 -30 -15 2 -14 1 -14
        -52 -17 -22 -1 -42 -7 -44 -13 -2 -8 -27 -12 -65 -12 -38 0 -57 4 -49 9 16 10
        -16 21 -60 21 -16 0 -28 6 -29 13 0 6 -2 20 -4 30 -3 15 7 17 93 19 122 2 159
        5 197 16 35 11 46 7 38 -13z m-393 5 c0 -13 -11 -13 -30 0 -12 8 -11 10 8 10
        12 0 22 -4 22 -10z m0 -60 c0 -5 -4 -10 -9 -10 -6 0 -13 5 -16 10 -3 6 1 10 9
        10 9 0 16 -4 16 -10z m-46 -52 c-4 -6 1 -8 13 -4 11 3 39 -1 63 -9 48 -17 193
        -20 255 -5 32 8 48 6 77 -8 36 -16 55 -38 23 -26 -8 4 -15 1 -15 -6 0 -8 9
        -10 25 -6 14 4 25 2 25 -4 0 -5 -9 -10 -20 -10 -11 0 -20 -4 -20 -10 0 -5 8
        -10 19 -10 22 0 32 -30 19 -54 -6 -10 -5 -16 2 -16 5 0 10 -5 10 -11 0 -6 -7
        -8 -15 -5 -8 3 -22 9 -30 12 -9 4 -15 1 -15 -7 0 -11 -23 -14 -105 -14 -75 0
        -108 -4 -117 -14 -11 -11 -6 -12 33 -7 25 4 56 2 70 -3 18 -7 3 -10 -66 -10
        l-90 -1 -2 -62 c0 -35 3 -68 8 -74 5 -6 8 -22 6 -35 -4 -25 -28 -36 -80 -38
        l-29 -1 31 31 c38 38 41 75 6 91 -14 6 -25 15 -25 19 0 4 -9 5 -20 2 -24 -6
        -53 15 -46 33 3 8 -2 20 -10 29 -18 17 -11 19 16 5 13 -7 21 -7 25 1 4 6 26
        10 49 8 64 -3 67 -2 60 25 -4 17 0 27 13 35 11 7 13 11 4 11 -9 0 -11 8 -7 25
        5 20 3 25 -13 25 -10 0 -24 7 -31 15 -15 18 -30 19 -67 3 -15 -6 -36 -10 -45
        -9 -10 1 -18 -3 -18 -8 0 -6 4 -11 8 -11 4 0 6 -15 4 -34 -3 -25 2 -40 17 -55
        28 -28 14 -27 -16 0 -20 20 -23 20 -29 5 -4 -11 -17 -16 -43 -15 -27 1 -30 3
        -11 6 38 7 51 25 15 21 -25 -2 -31 1 -33 20 -2 12 -7 22 -12 22 -5 0 -2 13 6
        30 13 25 18 28 35 20 13 -7 19 -7 19 0 0 5 -4 10 -10 10 -5 0 -10 9 -10 20 0
        11 -5 20 -11 20 -5 0 -7 -4 -4 -10 3 -5 1 -10 -4 -10 -17 0 -13 15 8 34 10 10
        33 18 49 18 17 1 31 4 30 7 -1 16 3 20 17 15 8 -4 12 -11 9 -16z m481 12 c-27
        -12 -43 -12 -25 0 8 5 22 9 30 9 10 0 8 -3 -5 -9z m170 -38 c-3 -3 -11 0 -18
        7 -9 10 -8 11 6 5 10 -3 15 -9 12 -12z m73 -68 c7 -2 16 -14 22 -28 5 -13 14
        -27 20 -31 22 -13 49 -88 43 -117 -3 -17 -1 -28 6 -28 6 0 11 -10 11 -22 0
        -17 3 -19 9 -9 6 9 10 3 13 -20 3 -19 1 -37 -4 -40 -5 -3 -2 -11 6 -18 11 -9
        13 -25 9 -64 -6 -57 -18 -78 -37 -71 -8 3 -16 -5 -20 -19 -5 -20 -17 -28 -67
        -41 -57 -17 -61 -17 -73 0 -9 12 -15 14 -20 5 -4 -6 -18 -8 -32 -5 -17 5 -24
        3 -22 -7 3 -15 -89 -13 -108 2 -13 11 -24 2 -18 -15 3 -9 22 -12 57 -10 42 3
        46 2 22 -5 -16 -5 -49 -9 -73 -10 -35 -1 -41 2 -35 14 5 8 6 47 2 87 -7 84 2
        108 36 108 14 0 25 4 25 10 0 16 -64 6 -80 -13 -14 -17 -16 -17 -28 3 -15 24
        -12 26 68 34 30 2 71 8 90 11 35 6 35 6 10 -9 -14 -8 -20 -15 -14 -16 19 0 43
        25 50 53 6 24 4 27 -21 27 -17 0 -25 4 -22 13 2 6 0 20 -4 29 -5 9 -5 19 -1
        22 10 6 9 62 -2 95 -6 16 -5 21 2 17 6 -4 16 2 21 13 15 28 14 36 -4 21 -8 -7
        -15 -8 -15 -3 0 13 55 43 79 43 12 0 21 4 21 9 0 5 14 5 33 -1 17 -6 38 -12
        45 -14z m-218 6 c0 -5 -4 -10 -9 -10 -6 0 -13 5 -16 10 -3 6 1 10 9 10 9 0 16
        -4 16 -10z m-740 -52 c0 -42 -14 -88 -27 -88 -23 0 -27 29 -7 66 19 34 34 44
        34 22z m-68 -90 c-17 -17 -15 -25 7 -31 14 -3 18 -1 14 9 -4 10 0 12 11 8 19
        -7 22 -50 4 -57 -10 -4 -10 -8 0 -15 11 -7 11 -10 -2 -15 -10 -4 -16 -18 -16
        -37 0 -16 -1 -30 -2 -31 -2 0 -25 -3 -51 -6 -47 -5 -49 -4 -45 18 2 16 9 24
        21 23 14 -2 15 1 6 12 -7 8 -9 17 -5 21 3 3 6 1 6 -5 0 -7 5 -12 10 -12 6 0
        10 7 10 15 0 8 -4 15 -10 15 -5 0 -10 7 -10 15 0 8 7 15 15 15 9 0 15 9 15 23
        0 21 16 47 29 47 3 0 0 -5 -7 -12z m721 5 c-13 -2 -33 -2 -45 0 -13 2 -3 4 22
        4 25 0 35 -2 23 -4z m-503 -43 c0 -24 -6 -25 -26 -6 -19 20 -18 26 6 26 13 0
        20 -7 20 -20z m325 -6 c14 -6 13 -8 -7 -18 -16 -9 -25 -9 -30 -2 -17 25 0 34
        37 20z m180 -4 c4 -6 -7 -10 -27 -10 -25 0 -29 3 -18 10 19 13 37 13 45 0z
        m-665 -110 c8 -5 12 -12 9 -15 -8 -8 -39 5 -39 16 0 11 11 11 30 -1z m215 -20
        c3 -5 2 -10 -4 -10 -5 0 -13 5 -16 10 -3 6 -2 10 4 10 5 0 13 -4 16 -10z
        m-125 -21 c0 -6 7 -9 15 -5 13 5 14 2 5 -15 -6 -11 -22 -24 -36 -29 -33 -13
        -43 -12 -24 1 12 8 9 10 -13 6 -26 -4 -27 -4 -11 14 9 11 23 19 31 19 7 0 13
        5 13 10 0 6 5 10 10 10 6 0 10 -5 10 -11z m-219 -16 c0 -15 2 -15 7 -3 9 19
        45 23 38 5 -3 -8 0 -16 7 -18 29 -11 -6 -17 -54 -11 -30 5 -46 10 -36 12 9 2
        17 10 17 18 0 20 20 17 21 -3z m83 2 c-6 -16 -24 -21 -24 -7 0 11 11 22 21 22
        5 0 6 -7 3 -15z m599 -12 c35 13 74 -85 47 -118 -23 -27 -35 -16 -54 48 -10
        34 -21 69 -23 77 -4 12 -3 13 5 1 6 -8 17 -11 25 -8z m-321 -4 c20 -11 20 -12
        -12 -25 -34 -15 -80 -19 -80 -7 0 3 7 15 17 25 18 21 45 23 75 7z m252 -24
        c26 -27 43 -92 29 -106 -5 -5 -23 -11 -40 -15 -28 -6 -33 -3 -48 27 -24 48
        -45 69 -67 69 -11 0 -29 5 -41 12 -21 11 -19 13 28 24 82 20 113 17 139 -11z
        m-470 -30 c181 -8 334 -19 339 -24 6 -6 4 -31 -5 -68 l-14 -58 -70 2 c-38 1
        -122 5 -187 8 -108 6 -117 8 -104 24 14 17 16 58 3 79 -4 7 -22 12 -41 12 -31
        0 -35 -3 -40 -34 -4 -19 -4 -44 0 -55 6 -19 3 -20 -37 -16 -24 2 -101 7 -172
        10 -72 3 -132 7 -134 9 -3 3 10 47 33 114 6 15 23 15 429 -3z m591 -107 c5 4
        5 1 1 -5 -11 -19 -57 -17 -50 2 4 11 11 12 24 5 9 -5 21 -6 25 -2z m-626 -755
        c3 -2 -44 -3 -105 -2 -64 1 -101 5 -89 10 19 7 185 1 194 -8z" />
<path d="M1031 3063 l3 -87 -52 -33 c-56 -36 -73 -69 -53 -107 9 -16 9 -29 2
-50 -6 -15 -11 -39 -11 -52 0 -21 -10 -30 -64 -54 -69 -32 -84 -50 -58 -73 20
-16 111 -47 141 -47 19 0 21 -6 21 -55 0 -45 -4 -56 -21 -65 -11 -7 -27 -27
-35 -46 -9 -22 -21 -34 -34 -34 -40 0 -60 -35 -60 -102 0 -95 14 -133 71 -186
l50 -47 -3 -154 -3 -153 43 -38 43 -38 -7 -66 c-5 -45 -3 -70 5 -80 9 -11 7
-27 -9 -75 -11 -33 -20 -77 -20 -97 0 -28 -9 -46 -40 -81 -22 -25 -40 -50 -40
-56 0 -6 -10 -24 -23 -41 -33 -45 -87 -168 -87 -200 l0 -28 -90 8 c-100 7
-114 2 -125 -46 -7 -31 -20 -36 -166 -60 -35 -6 -82 -15 -104 -20 -22 -6 -92
-19 -155 -30 -63 -12 -123 -23 -132 -26 -17 -5 -18 -32 -18 -375 l0 -369 1250
0 1250 0 0 365 c0 201 -2 365 -4 365 -2 0 -55 -20 -118 -44 -183 -71 -179 -70
-548 -52 -179 9 -379 18 -445 21 -155 7 -668 32 -900 45 -99 5 -223 10 -275
11 -52 1 -99 4 -104 7 -7 4 251 59 406 86 l37 7 -2 -38 -2 -37 48 -7 c27 -4
117 -10 200 -14 84 -3 248 -10 364 -15 117 -5 219 -7 227 -4 8 3 16 14 19 25
6 24 49 25 100 4 26 -11 77 -15 184 -16 203 -1 372 33 435 88 14 13 50 15 198
14 150 -2 180 0 180 12 0 11 -24 17 -97 23 l-98 9 -2 185 c-3 352 -11 400 -79
459 -30 27 -31 31 -15 36 11 3 21 11 24 18 6 17 -10 278 -22 362 -6 39 -15
108 -22 155 -16 123 -64 285 -125 417 -13 30 -24 57 -24 62 0 8 67 13 333 27
117 6 127 8 127 26 0 18 -5 19 -52 14 -29 -3 -137 -8 -239 -12 l-186 -6 -21
34 c-21 33 -21 37 -6 68 16 30 15 33 -5 60 -18 26 -19 31 -6 44 11 11 13 21 5
38 -24 58 -62 79 -240 136 -118 38 -502 59 -590 32 -72 -21 -75 -19 -73 65 l2
75 -30 0 -31 0 3 -87z m559 -88 c143 -23 219 -44 283 -78 67 -35 87 -61 64
-85 -14 -14 -21 -13 -70 2 -131 41 -562 68 -742 46 -147 -18 -159 -18 -163 2
-8 41 102 100 218 117 94 14 309 12 410 -4z m90 -235 c118 -14 216 -45 253
-79 28 -26 122 -208 147 -286 7 -22 19 -52 26 -67 36 -70 89 -430 96 -643 l3
-100 -75 -7 c-41 -3 -113 -16 -160 -27 -83 -20 -192 -27 -224 -15 -9 3 -16 18
-16 32 0 23 -1 24 -18 9 -27 -24 -97 -36 -212 -37 -124 0 -177 12 -189 43 -5
12 -23 32 -40 45 -48 35 -31 45 63 37 67 -5 79 -4 68 7 -9 9 -63 14 -196 18
-243 7 -241 5 -230 207 l7 123 58 0 c33 0 59 4 59 10 0 6 -15 10 -32 10 -52 0
-107 19 -119 41 -13 26 -3 75 19 84 9 4 56 9 105 12 83 6 105 14 72 27 -19 7
-19 40 -1 56 8 6 25 10 37 8 19 -2 24 -13 34 -61 15 -75 39 -106 105 -139 44
-22 69 -27 124 -28 99 0 147 25 175 90 12 27 21 54 21 61 0 14 65 6 86 -12 8
-6 15 -32 15 -58 1 -40 3 -37 10 24 5 39 7 95 4 125 -8 94 -8 217 -1 229 4 6
18 11 31 11 13 0 27 5 30 11 5 7 -4 8 -28 4 -32 -6 -37 -4 -51 22 -15 26 -15
23 -8 -67 4 -52 7 -124 7 -160 0 -64 -1 -65 -25 -61 -36 5 -80 29 -80 45 0 41
-92 72 -250 82 -93 7 -96 6 -127 -20 -23 -20 -42 -26 -77 -26 -33 0 -46 4 -46
14 0 20 -23 26 -101 26 -66 0 -69 1 -69 24 0 13 10 30 23 38 19 13 23 27 27
94 l5 78 60 2 c33 1 77 9 97 18 50 22 133 20 210 -4 63 -19 219 -39 207 -26
-4 4 -38 11 -75 17 -38 5 -99 18 -136 30 -74 23 -116 22 -217 -5 -53 -15 -73
-16 -125 -7 -78 14 -133 14 -141 1 -4 -6 12 -10 39 -10 25 0 46 -4 46 -10 0
-5 -12 -10 -26 -10 -32 0 -124 30 -124 40 0 5 21 15 46 24 25 8 67 31 93 50
27 20 59 40 72 46 31 13 509 6 639 -10z m-470 -1100 c0 -6 11 -22 24 -35 14
-14 20 -27 15 -30 -5 -4 -9 -16 -9 -29 0 -12 -5 -27 -12 -34 -15 -15 -184 -16
-193 -2 -6 9 6 82 20 128 5 15 155 17 155 2z m503 -145 c-3 -10 0 -13 8 -10
16 6 46 -11 37 -20 -3 -4 -21 -7 -40 -8 -20 -2 -32 -7 -30 -15 2 -14 1 -14
-52 -17 -22 -1 -42 -7 -44 -13 -2 -8 -27 -12 -65 -12 -38 0 -57 4 -49 9 16 10
-16 21 -60 21 -16 0 -28 6 -29 13 0 6 -2 20 -4 30 -3 15 7 17 93 19 122 2 159
5 197 16 35 11 46 7 38 -13z m-393 5 c0 -13 -11 -13 -30 0 -12 8 -11 10 8 10
12 0 22 -4 22 -10z m0 -60 c0 -5 -4 -10 -9 -10 -6 0 -13 5 -16 10 -3 6 1 10 9
10 9 0 16 -4 16 -10z m-46 -52 c-4 -6 1 -8 13 -4 11 3 39 -1 63 -9 48 -17 193
-20 255 -5 32 8 48 6 77 -8 36 -16 55 -38 23 -26 -8 4 -15 1 -15 -6 0 -8 9
-10 25 -6 14 4 25 2 25 -4 0 -5 -9 -10 -20 -10 -11 0 -20 -4 -20 -10 0 -5 8
-10 19 -10 22 0 32 -30 19 -54 -6 -10 -5 -16 2 -16 5 0 10 -5 10 -11 0 -6 -7
-8 -15 -5 -8 3 -22 9 -30 12 -9 4 -15 1 -15 -7 0 -11 -23 -14 -105 -14 -75 0
-108 -4 -117 -14 -11 -11 -6 -12 33 -7 25 4 56 2 70 -3 18 -7 3 -10 -66 -10
l-90 -1 -2 -62 c0 -35 3 -68 8 -74 5 -6 8 -22 6 -35 -4 -25 -28 -36 -80 -38
l-29 -1 31 31 c38 38 41 75 6 91 -14 6 -25 15 -25 19 0 4 -9 5 -20 2 -24 -6
-53 15 -46 33 3 8 -2 20 -10 29 -18 17 -11 19 16 5 13 -7 21 -7 25 1 4 6 26
10 49 8 64 -3 67 -2 60 25 -4 17 0 27 13 35 11 7 13 11 4 11 -9 0 -11 8 -7 25
5 20 3 25 -13 25 -10 0 -24 7 -31 15 -15 18 -30 19 -67 3 -15 -6 -36 -10 -45
-9 -10 1 -18 -3 -18 -8 0 -6 4 -11 8 -11 4 0 6 -15 4 -34 -3 -25 2 -40 17 -55
28 -28 14 -27 -16 0 -20 20 -23 20 -29 5 -4 -11 -17 -16 -43 -15 -27 1 -30 3
-11 6 38 7 51 25 15 21 -25 -2 -31 1 -33 20 -2 12 -7 22 -12 22 -5 0 -2 13 6
30 13 25 18 28 35 20 13 -7 19 -7 19 0 0 5 -4 10 -10 10 -5 0 -10 9 -10 20 0
11 -5 20 -11 20 -5 0 -7 -4 -4 -10 3 -5 1 -10 -4 -10 -17 0 -13 15 8 34 10 10
33 18 49 18 17 1 31 4 30 7 -1 16 3 20 17 15 8 -4 12 -11 9 -16z m481 12 c-27
-12 -43 -12 -25 0 8 5 22 9 30 9 10 0 8 -3 -5 -9z m170 -38 c-3 -3 -11 0 -18
7 -9 10 -8 11 6 5 10 -3 15 -9 12 -12z m73 -68 c7 -2 16 -14 22 -28 5 -13 14
-27 20 -31 22 -13 49 -88 43 -117 -3 -17 -1 -28 6 -28 6 0 11 -10 11 -22 0
-17 3 -19 9 -9 6 9 10 3 13 -20 3 -19 1 -37 -4 -40 -5 -3 -2 -11 6 -18 11 -9
13 -25 9 -64 -6 -57 -18 -78 -37 -71 -8 3 -16 -5 -20 -19 -5 -20 -17 -28 -67
-41 -57 -17 -61 -17 -73 0 -9 12 -15 14 -20 5 -4 -6 -18 -8 -32 -5 -17 5 -24
3 -22 -7 3 -15 -89 -13 -108 2 -13 11 -24 2 -18 -15 3 -9 22 -12 57 -10 42 3
46 2 22 -5 -16 -5 -49 -9 -73 -10 -35 -1 -41 2 -35 14 5 8 6 47 2 87 -7 84 2
108 36 108 14 0 25 4 25 10 0 16 -64 6 -80 -13 -14 -17 -16 -17 -28 3 -15 24
-12 26 68 34 30 2 71 8 90 11 35 6 35 6 10 -9 -14 -8 -20 -15 -14 -16 19 0 43
25 50 53 6 24 4 27 -21 27 -17 0 -25 4 -22 13 2 6 0 20 -4 29 -5 9 -5 19 -1
22 10 6 9 62 -2 95 -6 16 -5 21 2 17 6 -4 16 2 21 13 15 28 14 36 -4 21 -8 -7
-15 -8 -15 -3 0 13 55 43 79 43 12 0 21 4 21 9 0 5 14 5 33 -1 17 -6 38 -12
45 -14z m-218 6 c0 -5 -4 -10 -9 -10 -6 0 -13 5 -16 10 -3 6 1 10 9 10 9 0 16
-4 16 -10z m-740 -52 c0 -42 -14 -88 -27 -88 -23 0 -27 29 -7 66 19 34 34 44
34 22z m-68 -90 c-17 -17 -15 -25 7 -31 14 -3 18 -1 14 9 -4 10 0 12 11 8 19
-7 22 -50 4 -57 -10 -4 -10 -8 0 -15 11 -7 11 -10 -2 -15 -10 -4 -16 -18 -16
-37 0 -16 -1 -30 -2 -31 -2 0 -25 -3 -51 -6 -47 -5 -49 -4 -45 18 2 16 9 24
21 23 14 -2 15 1 6 12 -7 8 -9 17 -5 21 3 3 6 1 6 -5 0 -7 5 -12 10 -12 6 0
10 7 10 15 0 8 -4 15 -10 15 -5 0 -10 7 -10 15 0 8 7 15 15 15 9 0 15 9 15 23
0 21 16 47 29 47 3 0 0 -5 -7 -12z m721 5 c-13 -2 -33 -2 -45 0 -13 2 -3 4 22
4 25 0 35 -2 23 -4z m-503 -43 c0 -24 -6 -25 -26 -6 -19 20 -18 26 6 26 13 0
20 -7 20 -20z m325 -6 c14 -6 13 -8 -7 -18 -16 -9 -25 -9 -30 -2 -17 25 0 34
37 20z m180 -4 c4 -6 -7 -10 -27 -10 -25 0 -29 3 -18 10 19 13 37 13 45 0z
m-665 -110 c8 -5 12 -12 9 -15 -8 -8 -39 5 -39 16 0 11 11 11 30 -1z m215 -20
c3 -5 2 -10 -4 -10 -5 0 -13 5 -16 10 -3 6 -2 10 4 10 5 0 13 -4 16 -10z
m-125 -21 c0 -6 7 -9 15 -5 13 5 14 2 5 -15 -6 -11 -22 -24 -36 -29 -33 -13
-43 -12 -24 1 12 8 9 10 -13 6 -26 -4 -27 -4 -11 14 9 11 23 19 31 19 7 0 13
5 13 10 0 6 5 10 10 10 6 0 10 -5 10 -11z m-219 -16 c0 -15 2 -15 7 -3 9 19
45 23 38 5 -3 -8 0 -16 7 -18 29 -11 -6 -17 -54 -11 -30 5 -46 10 -36 12 9 2
17 10 17 18 0 20 20 17 21 -3z m83 2 c-6 -16 -24 -21 -24 -7 0 11 11 22 21 22
5 0 6 -7 3 -15z m599 -12 c35 13 74 -85 47 -118 -23 -27 -35 -16 -54 48 -10
34 -21 69 -23 77 -4 12 -3 13 5 1 6 -8 17 -11 25 -8z m-321 -4 c20 -11 20 -12
-12 -25 -34 -15 -80 -19 -80 -7 0 3 7 15 17 25 18 21 45 23 75 7z m252 -24
c26 -27 43 -92 29 -106 -5 -5 -23 -11 -40 -15 -28 -6 -33 -3 -48 27 -24 48
-45 69 -67 69 -11 0 -29 5 -41 12 -21 11 -19 13 28 24 82 20 113 17 139 -11z
m-470 -30 c181 -8 334 -19 339 -24 6 -6 4 -31 -5 -68 l-14 -58 -70 2 c-38 1
-122 5 -187 8 -108 6 -117 8 -104 24 14 17 16 58 3 79 -4 7 -22 12 -41 12 -31
0 -35 -3 -40 -34 -4 -19 -4 -44 0 -55 6 -19 3 -20 -37 -16 -24 2 -101 7 -172
10 -72 3 -132 7 -134 9 -3 3 10 47 33 114 6 15 23 15 429 -3z m591 -107 c5 4
5 1 1 -5 -11 -19 -57 -17 -50 2 4 11 11 12 24 5 9 -5 21 -6 25 -2z m-626 -755
c3 -2 -44 -3 -105 -2 -64 1 -101 5 -89 10 19 7 185 1 194 -8z" />
        <path d="M1756 2700 c19 -35 77 -110 85 -110 17 0 8 15 -43 70 -27 30 -47 48
-42 40z" />
        <path d="M1660 2593 c19 -3 40 -9 47 -15 14 -11 36 -1 28 13 -4 5 -30 8 -58 7
-41 -1 -44 -2 -17 -5z" />
        <path d="M1841 2564 c0 -11 3 -14 6 -6 3 7 2 16 -1 19 -3 4 -6 -2 -5 -13z" />
        <path d="M1733 1925 c0 -38 2 -53 4 -32 2 20 2 52 0 70 -2 17 -4 1 -4 -38z" />
        <path d="M1727 1844 c-4 -4 -7 -14 -7 -23 0 -11 3 -12 11 -4 6 6 10 16 7 23
-2 6 -7 8 -11 4z" />
        <path d="M1722 1740 c0 -14 2 -19 5 -12 2 6 2 18 0 25 -3 6 -5 1 -5 -13z" />
        <path d="M1436 1341 c-7 -10 60 -20 86 -13 10 2 15 8 12 14 -3 5 -11 4 -19 -2
-10 -8 -19 -8 -34 -1 -24 13 -38 14 -45 2z" />
        <path d="M1568 1343 c7 -3 16 -2 19 1 4 3 -2 6 -13 5 -11 0 -14 -3 -6 -6z" />
        <path d="M1568 1313 c7 -3 16 -2 19 1 4 3 -2 6 -13 5 -11 0 -14 -3 -6 -6z" />
        <path d="M1448 1203 c7 -3 16 -2 19 1 4 3 -2 6 -13 5 -11 0 -14 -3 -6 -6z" />
        <path d="M1350 1150 c0 -5 5 -10 10 -10 6 0 10 5 10 10 0 6 -4 10 -10 10 -5 0
-10 -4 -10 -10z" />
        <path d="M1390 1005 c0 -8 5 -15 10 -15 6 0 10 7 10 15 0 8 -4 15 -10 15 -5 0
-10 -7 -10 -15z" />
        <path d="M741 829 c-18 -51 -14 -59 24 -59 38 0 47 14 15 23 -17 4 -19 9 -10
32 13 34 13 35 -4 35 -8 0 -19 -14 -25 -31z" />
        <path d="M860 831 c-13 -25 -13 -61 0 -61 11 0 30 42 30 66 0 20 -18 17 -30
-5z" />
        <path d="M1040 836 c0 -8 5 -18 10 -21 6 -3 10 -19 10 -36 0 -35 17 -38 30 -5
5 13 19 31 30 39 30 21 17 40 -16 25 -18 -9 -27 -9 -36 0 -16 16 -28 15 -28
-2z" />
        <path d="M1161 827 c-6 -8 -14 -28 -17 -45 -7 -36 10 -44 31 -15 13 17 14 17
32 0 11 -9 23 -17 26 -17 15 0 6 39 -14 64 -23 29 -41 33 -58 13z" />
        <path d="M1920 3141 c0 -5 12 -12 27 -16 22 -5 24 -8 12 -16 -11 -8 -9 -9 6
-5 14 4 38 -5 68 -24 26 -16 51 -30 56 -30 6 0 140 -55 196 -80 18 -9 205 -70
212 -70 2 0 3 10 3 23 0 19 -10 25 -82 45 -91 26 -171 58 -325 133 -95 46
-173 64 -173 40z" />
        <path d="M2248 2623 c7 -3 16 -2 19 1 4 3 -2 6 -13 5 -11 0 -14 -3 -6 -6z" />
    </g>
</svg>